<?xml version="1.0" encoding="utf-8"?>
<!-- Generator: Adobe Illustrator 28.3.0, SVG Export Plug-In . SVG Version: 6.00 Build 0)  -->
<svg version="1.1" id="Layer_2_00000033357155629813421690000016446184592175946890_"
	 xmlns="http://www.w3.org/2000/svg" xmlns:xlink="http://www.w3.org/1999/xlink" x="0px" y="0px" viewBox="0 0 196.6 27.8"
	 style="enable-background:new 0 0 196.6 27.8;" xml:space="preserve">
<style type="text/css">
	.st0{fill:#FFFFFF;}
</style>
<g>
	<path class="st0" d="M115,93.9l-5.9-82.1c0-4.4,2.3-7.5-2-7.5H100v2.4c2.5,0.8,4.4,3.1,4.4,5.9c0,3.4-2.7,6.1-6.1,6.1
		s-6.1-2.7-6.1-6.1c0-2.8,1.8-5.1,4.4-5.9V4.3h-17v2.4c2.5,0.8,4.4,3.1,4.4,5.9c0,3.4-2.7,6.1-6.1,6.1s-6.1-2.7-6.1-6.1
		c0-2.8,1.8-5.1,4.4-5.9V4.3h-17v2.4c2.5,0.8,4.4,3.1,4.4,5.9c0,3.4-2.7,6.1-6.1,6.1s-6.1-2.7-6.1-6.1c0-2.8,1.8-5.1,4.4-5.9V4.3
		h-17v2.4c2.5,0.8,4.4,3.1,4.4,5.9c0,3.4-2.7,6.1-6.1,6.1S31,16,31,12.6c0-2.8,1.8-5.1,4.4-5.9V4.3h-17v2.4c2.5,0.8,4.4,3.1,4.4,5.9
		c0,3.4-2.7,6.1-6.1,6.1s-6.1-2.7-6.1-6.1c0-2.8,1.8-5.1,4.4-5.9V4.3H7.9c-4.3,0-7.9,3.6-7.9,8V94c0,4.4,3.6,7.9,7.9,7.9h99.2
		C111.4,101.9,115,98.3,115,93.9L115,93.9z"/>
</g>
<g>
	<path class="st0" d="M81.6,93.9l5.9-82.1c0-4.4-2.3-7.5,2-7.5h7.1v2.4c-2.5,0.8-4.4,3.1-4.4,5.9c0,3.4,2.7,6.1,6.1,6.1
		s6.1-2.7,6.1-6.1c0-2.8-1.8-5.1-4.4-5.9V4.3h17v2.4c-2.5,0.8-4.4,3.1-4.4,5.9c0,3.4,2.7,6.1,6.1,6.1s6.1-2.7,6.1-6.1
		c0-2.8-1.8-5.1-4.4-5.9V4.3h17v2.4c-2.5,0.8-4.4,3.1-4.4,5.9c0,3.4,2.7,6.1,6.1,6.1s6.1-2.7,6.1-6.1c0-2.8-1.8-5.1-4.4-5.9V4.3h17
		v2.4c-2.5,0.8-4.4,3.1-4.4,5.9c0,3.4,2.7,6.1,6.1,6.1s6.1-2.7,6.1-6.1c0-2.8-1.8-5.1-4.4-5.9V4.3h17v2.4c-2.5,0.8-4.4,3.1-4.4,5.9
		c0,3.4,2.7,6.1,6.1,6.1c3.4,0,6.1-2.7,6.1-6.1c0-2.8-1.8-5.1-4.4-5.9V4.3h7.1c4.3,0,7.9,3.6,7.9,8V94c0,4.4-3.6,7.9-7.9,7.9H89.5
		C85.2,101.9,81.6,98.3,81.6,93.9L81.6,93.9z"/>
</g>
</svg>
